<svg width="25" height="24" viewBox="0 0 25 24" fill="none" xmlns="http://www.w3.org/2000/svg">
<path d="M21.4174 14.6456C20.6435 12.9391 19.6116 11.4108 18.4508 9.93354C17.7027 8.96565 16.903 8.0487 15.9486 7.25911C15.7938 7.13176 15.768 7.05535 15.8454 6.87705C16.4387 5.42522 17.032 3.99886 17.5995 2.54703C17.7801 2.08856 17.7027 1.63009 17.3416 1.29897C17.0062 0.967852 16.5419 0.916911 16.0776 1.12068C15.639 1.29897 15.2263 1.47727 14.7878 1.63009C13.4464 2.08856 12.0792 2.26686 10.6862 1.96121C9.8091 1.78291 8.98363 1.50274 8.15815 1.12068C7.53904 0.840499 6.86834 1.12068 6.63618 1.73197C6.53299 2.01215 6.55879 2.29233 6.66198 2.59798C7.25529 4.04981 7.8228 5.50164 8.41611 6.92799C8.4677 7.08082 8.4677 7.15723 8.33872 7.25911C8.13235 7.41194 7.92598 7.59023 7.74541 7.76853C5.8365 9.67883 4.23714 11.8438 3.02472 14.289C2.58619 15.155 2.25084 16.072 2.14765 17.0653C1.91549 19.5615 3.48905 21.9048 5.88809 22.6944C6.32663 22.8217 6.76516 22.8981 7.20369 23C10.4798 23 13.7559 23 17.032 23C17.2642 22.9491 17.5221 22.9236 17.7543 22.8726C20.1791 22.3632 22.0365 20.1982 22.1138 17.753C22.1912 16.6323 21.8559 15.639 21.4174 14.6456ZM8.41611 2.52156C8.41611 2.52156 8.41611 2.49609 8.41611 2.44515C10.9183 3.66775 13.3948 3.66775 15.8712 2.44515C15.8712 2.47062 15.8712 2.47062 15.897 2.49609C15.4069 3.69322 14.9425 4.86487 14.4524 6.06199C14.4008 6.16387 14.3492 6.16387 14.246 6.16387C13.3948 6.16387 12.5435 6.16387 11.6922 6.16387C11.1247 6.16387 10.583 6.16387 10.0155 6.16387C9.96388 6.16387 9.86069 6.11293 9.8349 6.06199C9.34477 4.89034 8.88044 3.71869 8.41611 2.52156ZM18.2444 20.7586C17.5995 21.1406 16.903 21.2935 16.1549 21.2935C14.8135 21.2935 13.4721 21.2935 12.1308 21.2935C10.7894 21.2935 9.42216 21.2935 8.08076 21.2935C6.06866 21.2935 4.44351 20.0199 4.00498 18.1096C3.79861 17.2182 3.95338 16.3776 4.28873 15.5626C4.77886 14.289 5.50115 13.1174 6.30083 11.9967C7.12631 10.825 8.02917 9.72977 9.08681 8.76188C9.1384 8.73641 9.1642 8.68547 9.21579 8.66C9.60273 8.27794 10.0413 8.09965 10.6088 8.12512C11.718 8.17606 12.8272 8.15059 13.9623 8.12512C14.246 8.12512 14.504 8.17606 14.7104 8.35435C15.1747 8.78735 15.6648 9.19489 16.1034 9.65336C17.5221 11.1816 18.7346 12.8881 19.6632 14.773C19.9728 15.4352 20.2565 16.0974 20.3081 16.8106C20.4629 18.5426 19.7406 19.8671 18.2444 20.7586ZM15.0199 11.9712C15.7422 12.7608 16.1034 13.8306 16.1034 15.1805V15.2824H14.7104V15.1805C14.7104 14.1617 14.4782 13.3466 14.0139 12.7608C13.8849 12.5825 13.7301 12.4551 13.5753 12.3278V15.3333H12.5177V11.8948C12.2855 11.8693 12.0534 11.8693 11.8212 11.8948V15.3333H10.7636V12.2768C10.583 12.4042 10.4024 12.557 10.2476 12.7608C9.78331 13.3466 9.55114 14.1617 9.55114 15.1805C9.55114 16.1993 9.8349 16.9634 10.3508 17.4983C10.7894 17.9313 11.3053 18.186 11.8728 18.2625H15.1747V19.4086H8.5193V18.2625H9.34477C8.54509 17.5238 8.13235 16.4795 8.13235 15.1805C8.13235 13.856 8.4935 12.7608 9.21579 11.9712C9.62853 11.5127 10.1445 11.1816 10.7378 10.9778V10.0864H11.7954V10.7741C12.0276 10.7741 12.2597 10.7741 12.4919 10.7741V10.0864H13.5495V11.0033C14.1171 11.1816 14.6072 11.5127 15.0199 11.9712Z" fill="#ADADAD"/>
</svg>
