<svg width="25" height="24" viewBox="0 0 25 24" fill="none" xmlns="http://www.w3.org/2000/svg">
<path d="M12.625 23C18.325 23 23.015 18.66 23.575 13.1C23.635 12.51 23.165 12 22.575 12C22.065 12 21.635 12.38 21.585 12.88C21.145 17.44 17.295 21 12.625 21C9.505 21 6.755 19.41 5.145 17H6.625C7.175 17 7.625 16.55 7.625 16C7.625 15.45 7.175 15 6.625 15H2.625C2.075 15 1.625 15.45 1.625 16V20C1.625 20.55 2.075 21 2.625 21C3.175 21 3.625 20.55 3.625 20V18.33C5.615 21.15 8.905 23 12.625 23ZM12.625 1C6.925 1 2.235 5.34 1.675 10.9C1.625 11.49 2.085 12 2.675 12C3.185 12 3.615 11.62 3.665 11.12C4.105 6.56 7.955 3 12.625 3C15.745 3 18.495 4.59 20.105 7H18.625C18.075 7 17.625 7.45 17.625 8C17.625 8.55 18.075 9 18.625 9H22.625C23.175 9 23.625 8.55 23.625 8V4C23.625 3.45 23.175 3 22.625 3C22.075 3 21.625 3.45 21.625 4V5.67C19.635 2.85 16.345 1 12.625 1Z" fill="#ADADAD"/>
<path d="M16.267 7.9375C15.7731 7.375 15.1559 6.9375 14.4151 6.6875V5.625C14.4769 5.5625 14.4151 5.5 14.2917 5.5H13.2423C13.1806 5.5 13.1188 5.5625 13.1188 5.625V6.375C12.8719 6.375 12.5633 6.375 12.3164 6.375V5.625C12.2546 5.5625 12.1929 5.5 12.1312 5.5H11.0818C10.9583 5.5 10.8966 5.5625 10.8966 5.625V6.625C10.1559 6.875 9.53858 7.3125 8.98302 7.875C8.0571 8.9375 7.625 10.3125 7.625 12.0625C7.625 13.6875 8.11883 15.0625 9.10648 16H8.24228C8.18056 16 8.11883 16.0625 8.11883 16.125V17.375C8.11883 17.4375 8.18056 17.5 8.24228 17.5H16.3287C16.3904 17.5 16.4522 17.4375 16.4522 17.375V16.125C16.4522 16.0625 16.3904 16 16.3287 16H12.3164C11.6373 15.9375 10.9583 15.5625 10.4028 15C9.72377 14.3125 9.41512 13.3125 9.41512 12.0625C9.41512 10.75 9.72377 9.75 10.2793 9C10.4645 8.75 10.6497 8.5625 10.8966 8.4375V12.1875C10.8966 12.25 10.9583 12.3125 11.0201 12.3125H12.0694C12.1312 12.3125 12.1929 12.25 12.1929 12.1875V7.875C12.4398 7.8125 12.7485 7.875 12.9954 7.875V12.125C12.9954 12.1875 13.0571 12.25 13.1188 12.25H14.1682C14.2299 12.25 14.2917 12.1875 14.2917 12.125V8.4375C14.4769 8.5625 14.662 8.75 14.7855 8.9375C15.341 9.6875 15.6497 10.75 15.6497 12C15.6497 12.0625 15.7114 12.125 15.7731 12.125H17.5015C17.5633 12.125 17.625 12.0625 17.625 12C17.625 10.3125 17.1929 8.9375 16.267 7.9375Z" fill="#ADADAD"/>
</svg>
