<svg width="36" height="36" viewBox="0 0 36 36" fill="none" xmlns="http://www.w3.org/2000/svg">
<path d="M16.2782 32.4C18.5359 32.4 20.5883 31.7287 22.3329 30.5874C21.9566 29.849 21.7172 29.0098 21.7172 28.1371C21.7172 25.2168 24.1117 22.8336 27.0877 22.8C27.1219 22.4643 27.1561 22.0951 27.1561 21.7259C27.1561 15.8182 22.2987 11.0518 16.2782 11.0518C10.2578 11.0853 5.40039 15.8518 5.40039 21.7594C5.40039 27.6336 10.2578 32.4 16.2782 32.4ZM16.2782 15.3483C19.87 15.3483 22.8118 18.2014 22.8118 21.7594C22.8118 25.3175 19.9042 28.1706 16.2782 28.1706C12.6865 28.1706 9.74469 25.3175 9.74469 21.7594C9.74469 18.2014 12.6865 15.3483 16.2782 15.3483Z" fill="#D92329"/>
<path d="M24.9673 13.7031V3.59961H20.623V10.8164C20.9651 10.9507 21.3072 11.0849 21.6493 11.2528C22.8807 11.8905 24.0095 12.6961 24.9673 13.7031Z" fill="#D92329"/>
<path d="M15.1835 10.0446C15.5255 10.011 15.9018 9.97742 16.2781 9.97742C17.0306 9.97742 17.749 10.0446 18.4673 10.1788V5.74805H15.2177H14.123V10.2124C14.1573 10.2124 14.1915 10.2124 14.2599 10.1788C14.5335 10.1452 14.8756 10.0781 15.1835 10.0446Z" fill="#D92329"/>
<path d="M8.06874 13.2329C8.17136 13.1322 8.30819 13.0315 8.44502 12.9308C8.47923 12.8973 8.54764 12.8637 8.58185 12.7966C9.57385 11.9574 10.7027 11.2861 11.9683 10.8162V7.8623H8.65026H7.58984V13.7029L7.62405 13.6693C7.76088 13.5015 7.89771 13.3672 8.06874 13.2329Z" fill="#D92329"/>
<path d="M27.7041 23.9076C27.5331 23.874 27.3278 23.874 27.1568 23.874C24.7623 23.874 22.8125 25.7873 22.8125 28.137C22.8125 30.4866 24.7623 32.3999 27.1568 32.3999C27.3278 32.3999 27.5331 32.3999 27.7041 32.3663C29.8592 32.0978 31.5011 30.3188 31.5011 28.137C31.5011 25.9551 29.8592 24.1761 27.7041 23.9076ZM26.6437 25.0824C27.0884 25.0824 27.4647 25.4516 27.4647 25.888C27.4647 26.3244 27.0884 26.6936 26.6437 26.6936C26.199 26.6936 25.8227 26.3244 25.8227 25.888C25.8227 25.4516 26.199 25.0824 26.6437 25.0824ZM27.8067 31.2251C27.362 31.2251 26.9858 30.8558 26.9858 30.4195C26.9858 29.9831 27.362 29.6139 27.8067 29.6139C28.2514 29.6139 28.6277 29.9831 28.6277 30.4195C28.6277 30.8894 28.2514 31.2251 27.8067 31.2251ZM25.7201 30.3188L24.9675 29.5803L28.6277 25.9887L29.004 26.3579L29.3803 26.7272L25.7201 30.3188Z" fill="#231F20"/>
<path d="M19.6312 21.7928V21.7257C19.6312 20.6516 19.3233 19.7789 18.7418 19.1075C18.3998 18.7383 17.9893 18.4698 17.5446 18.3019V17.5635H16.6894V18.1341C16.4842 18.1341 16.3131 18.1341 16.1079 18.1341V17.5635H15.2527V18.2684C14.7738 18.4362 14.3291 18.7047 13.987 19.074C13.4055 19.7117 13.0977 20.5845 13.0977 21.6921C13.0977 22.7663 13.4397 23.6054 14.0897 24.2096H13.4055V25.1495H18.8444V24.2096H16.1421C15.6974 24.1425 15.2527 23.9411 14.9106 23.5719C14.4659 23.1355 14.2607 22.4977 14.2607 21.6921C14.2607 20.853 14.4659 20.2152 14.8422 19.7117C14.979 19.5439 15.1159 19.4432 15.2527 19.3089V21.7928H16.1079V19.0404C16.2789 19.0068 16.4842 19.0068 16.6894 19.0404V21.8264H17.5446V19.3761C17.6814 19.4768 17.784 19.5775 17.9209 19.7117C18.2971 20.1817 18.5024 20.853 18.5024 21.6921V21.7593H19.6312V21.7928Z" fill="#231F20"/>
</svg>
