<svg width="36" height="36" viewBox="0 0 36 36" fill="none" xmlns="http://www.w3.org/2000/svg">
<path d="M6.4375 24.3655H17.243L15.6928 19.7441H7.98765L6.4375 24.3655Z" fill="#D92329"/>
<path d="M18.1543 24.3655H28.9598L27.4096 19.7441H19.7044L18.1543 24.3655Z" fill="#D92329"/>
<path d="M12.3184 18.6231H23.1238L21.5737 13.9551H13.8685L12.3184 18.6231Z" fill="#D92329"/>
<path d="M19.2031 10.3141C18.3824 10.3141 17.7441 9.66056 17.7441 8.82031C17.7441 9.66056 17.1058 10.3141 16.2852 10.3141C17.1058 10.3141 17.7441 10.9676 17.7441 11.8079C17.6985 10.9676 18.3824 10.3141 19.2031 10.3141Z" fill="#D92329"/>
<path d="M25.6328 16.9426C26.4386 16.9426 27.0918 16.2738 27.0918 15.4489C27.0918 14.6239 26.4386 13.9551 25.6328 13.9551C24.827 13.9551 24.1738 14.6239 24.1738 15.4489C24.1738 16.2738 24.827 16.9426 25.6328 16.9426Z" fill="#D92329"/>
<path d="M11.2246 15.8698C10.4039 15.8698 9.76561 15.2162 9.76561 14.376C9.76561 15.2162 9.12731 15.8698 8.30664 15.8698C9.12731 15.8698 9.76561 16.5233 9.76561 17.3635C9.76561 16.57 10.4039 15.8698 11.2246 15.8698Z" fill="#D92329"/>
<path d="M32.6985 25.7656H2.74414V28.7999H32.6985V25.7656Z" fill="#231F20"/>
<path d="M17.6992 6.2998C9.44694 6.2998 2.69922 13.2085 2.69922 21.6577V24.3652H4.24937V21.6577C4.24937 14.0488 10.2676 7.88694 17.6992 7.88694C25.1308 7.88694 31.1491 14.0488 31.1491 21.6577V24.3652H32.6992V21.6577C32.6992 13.2085 25.9971 6.2998 17.6992 6.2998Z" fill="#231F20"/>
</svg>
