<svg width="25" height="24" viewBox="0 0 25 24" fill="none" xmlns="http://www.w3.org/2000/svg">
<path d="M18.4754 11.8001L16.4754 13.6001C16.3754 13.7001 16.3754 13.9001 16.4754 14.1001L18.4754 15.9001C18.6754 16.1001 19.0754 16.0001 19.0754 15.7001V14.5001H22.1754C22.5754 14.5001 22.8754 14.2001 22.8754 13.8001C22.8754 13.4001 22.5754 13.1001 22.1754 13.1001H19.0754V12.0001C19.0754 11.7001 18.6754 11.6001 18.4754 11.8001ZM23.2754 9.90015L21.2754 8.10015C21.0754 7.90015 20.6754 8.00015 20.6754 8.30015V9.50015H17.5754C17.1754 9.50015 16.8754 9.80015 16.8754 10.2001C16.8754 10.6001 17.1754 10.9001 17.5754 10.9001H20.6754V12.0001C20.6754 12.3001 21.0754 12.4001 21.2754 12.2001L23.2754 10.4001C23.3754 10.3001 23.3754 10.1001 23.2754 9.90015Z" fill="#ADADAD"/>
<path d="M19.875 17C19.675 17 19.375 17 19.175 16.9C18.275 18.1 16.975 19 15.475 19.5C16.075 18.4 16.575 17.2 16.875 15.9C16.175 15.4 15.675 14.7 15.375 13.9H10.575C10.475 13.2 10.375 12.6 10.375 11.9C10.375 11.2 10.475 10.6 10.575 9.9H15.375C15.675 9.1 16.275 8.4 16.975 7.9C16.675 6.7 16.175 5.4 15.575 4.3C17.075 4.8 18.275 5.7 19.275 6.9C19.375 7 19.675 7 19.875 7C20.575 7 21.175 7.1 21.775 7.4C20.075 4.2 16.675 2 12.875 2C7.375 2 2.875 6.5 2.875 12C2.875 17.5 7.375 22 12.875 22C16.775 22 20.075 19.8 21.775 16.6C21.175 16.9 20.575 17 19.875 17ZM12.875 4C13.675 5.2 14.375 6.5 14.775 8H10.975C11.375 6.6 12.075 5.2 12.875 4ZM5.175 14C4.975 13.4 4.875 12.7 4.875 12C4.875 11.3 4.975 10.6 5.175 10H8.575C8.475 10.7 8.475 11.3 8.475 12C8.475 12.7 8.575 13.3 8.575 14H5.175ZM5.975 16H8.975C9.275 17.2 9.775 18.5 10.375 19.6C8.475 18.9 6.875 17.7 5.975 16ZM8.875 8H5.875C6.875 6.3 8.375 5.1 10.175 4.4C9.675 5.5 9.175 6.8 8.875 8ZM12.875 20C12.075 18.8 11.375 17.5 10.975 16H14.775C14.375 17.4 13.675 18.8 12.875 20Z" fill="#ADADAD"/>
</svg>
