<svg width="147" height="52" viewBox="0 0 147 52" fill="none" xmlns="http://www.w3.org/2000/svg">
<g clip-path="url(#clip0_8774_287)">
<path d="M64.8761 23.3334C61.1915 21.4644 61.1648 20.9571 61.1648 19.7021H56.8927C56.8927 23.2266 58.2544 24.1077 61.7255 25.7097C64.9028 27.2049 66.0242 28.086 66.0242 29.5545C66.0242 31.2633 64.4756 32.3313 60.8711 32.3313C58.6816 32.3313 55.8247 31.2099 53.9824 30.0885V33.7464C55.4242 34.7076 58.468 35.8023 61.2716 35.8023C67.6796 35.8023 70.4831 33.0522 70.4831 29.7681C70.4831 26.6976 69.0947 25.4694 64.8761 23.3334Z" fill="#231F20"/>
<path d="M46.0529 29.4204C48.3758 28.7262 49.4171 26.8838 49.4171 24.4007C49.4171 22.5317 48.9098 20.7962 47.9753 19.6748H43.7032C44.6111 20.6894 45.4121 22.1312 45.4121 24.5075C45.4121 26.3498 44.5577 27.6581 41.9677 27.6581H39.0841V31.1559H41.7274C44.4241 31.1559 46.9607 31.9836 46.9607 35.0808C46.9607 38.178 44.5844 38.979 40.7128 38.979C38.6302 38.979 36.0136 38.3115 33.9043 37.4571V40.7946C35.266 41.5689 38.737 42.4767 41.407 42.4767C46.7738 42.4767 51.2861 40.6077 51.2861 35.0808C51.3128 31.9035 48.7229 30.0078 46.0529 29.4204Z" fill="#D92329"/>
<path d="M115.395 19.6748L120.921 29.5005H125.487L119.987 19.6748H115.395Z" fill="#D92329"/>
<path d="M126.074 28.4598L132.375 17.2725H127.782L123.777 24.4014L126.074 28.4598Z" fill="#231F20"/>
<path d="M84.8224 23.6801C87.1453 22.9859 88.1866 21.7576 88.1866 19.8085C88.1866 15.1894 79.6693 15.4564 79.6693 13.5607V13H75.3972V13.5607C75.3972 18.3667 84.1816 16.9783 84.1816 19.9954C84.1816 21.1702 83.3272 21.9178 80.7373 21.9178H77.8537V25.4156H80.497C83.1937 25.4156 85.7302 25.7894 85.7302 28.673C85.7302 31.5566 83.3539 32.2508 79.4824 32.2508C77.3998 32.2508 74.7831 31.5833 72.6738 30.7289V34.0664C74.0355 34.8407 77.5066 35.7485 80.1766 35.7485C85.5433 35.7485 90.0556 34.4402 90.0556 28.9133C90.0556 25.3889 87.4924 24.2408 84.8224 23.6801Z" fill="#231F20"/>
<path d="M102.311 19.0078C97.2916 19.0078 93.0195 21.3307 93.0195 27.7388C93.0195 29.9816 93.2598 32.8385 93.5802 35.108H97.3717C97.1581 32.5448 97.0246 29.7947 97.0246 27.7388C97.0246 23.8672 98.7067 22.4788 102.311 22.4788C105.916 22.4788 107.598 23.8672 107.598 27.7388C107.598 29.7947 107.464 32.5181 107.251 35.108H111.042C111.363 32.8652 111.603 29.9816 111.603 27.7388C111.576 21.3574 107.331 19.0078 102.311 19.0078Z" fill="#231F20"/>
<path d="M31.6621 19.7017H27.5236C27.5236 23.3063 30.1402 24.5345 30.1402 27.4715C30.1402 30.8357 28.4581 32.3309 25.174 32.3309C21.5694 32.3309 19.9407 30.9425 19.9407 27.071V13H15.375V27.0443C15.375 33.4523 20.181 35.7752 25.2007 35.7752C30.2203 35.7752 34.4923 33.4523 34.4923 27.4448C34.4923 23.9204 31.6621 22.0513 31.6621 19.7017Z" fill="#D92329"/>
</g>
<defs>
<clipPath id="clip0_8774_287">
<rect width="146.25" height="52" fill="white" transform="translate(0.75)"/>
</clipPath>
</defs>
</svg>
