<svg width="25" height="24" viewBox="0 0 25 24" fill="none" xmlns="http://www.w3.org/2000/svg">
<path d="M13.545 4L18.375 8.83V20H6.375V4H13.545ZM14.375 2H6.375C5.275 2 4.375 2.9 4.375 4V20C4.375 21.1 5.275 22 6.375 22H18.375C19.475 22 20.375 21.1 20.375 20V8L14.375 2Z" fill="#ADADAD"/>
<path d="M16.7083 12.5779V12.4774C16.7083 11.0201 16.3115 9.86432 15.5675 9.01005C15.121 8.50754 14.625 8.15578 14.0298 7.95477V7H12.9385V7.75377C12.6905 7.75377 12.4425 7.75377 12.1944 7.75377V7H11.1032V7.95477C10.5079 8.15578 9.9623 8.50754 9.51587 9.01005C8.77183 9.86432 8.375 11.0201 8.375 12.4271C8.375 13.8342 8.82143 14.9397 9.61508 15.7437H8.77183V17H15.7163V15.7437H12.2937C11.6984 15.6432 11.1528 15.392 10.7063 14.9397C10.1111 14.3869 9.8631 13.5327 9.8631 12.4271C9.8631 11.3216 10.1111 10.4673 10.6071 9.81407C10.756 9.61307 10.9544 9.46231 11.1528 9.31156V12.5779H12.244V8.9598C12.4921 8.90955 12.7401 8.90955 12.9881 8.9598V12.6281H14.0794V9.41206C14.2282 9.56281 14.377 9.71357 14.5258 9.86432C15.0218 10.4673 15.2698 11.3719 15.2698 12.4774V12.5779H16.7083Z" fill="#ADADAD"/>
</svg>
