<svg width="41" height="40" viewBox="0 0 41 40" fill="none" xmlns="http://www.w3.org/2000/svg">
<path d="M20.5 0C9.46 0 0.5 8.96 0.5 20C0.5 31.04 9.46 40 20.5 40C31.54 40 40.5 31.04 40.5 20C40.5 8.96 31.54 0 20.5 0ZM20.5 36C11.68 36 4.5 28.82 4.5 20C4.5 11.18 11.68 4 20.5 4C29.32 4 36.5 11.18 36.5 20C36.5 28.82 29.32 36 20.5 36ZM28.26 12.58L16.5 24.34L12.74 20.58C11.96 19.8 10.7 19.8 9.92 20.58C9.14 21.36 9.14 22.62 9.92 23.4L15.1 28.58C15.88 29.36 17.14 29.36 17.92 28.58L31.1 15.4C31.88 14.62 31.88 13.36 31.1 12.58C30.32 11.8 29.04 11.8 28.26 12.58Z" fill="#10BE92"/>
</svg>
